<svg width="169" height="158" viewBox="0 0 169 158" fill="none" xmlns="http://www.w3.org/2000/svg">
<circle cx="2" cy="2" r="2" fill="#6E6E6E"/>
<circle cx="2" cy="90" r="2" fill="#6E6E6E"/>
<circle cx="2" cy="46" r="2" fill="#6E6E6E"/>
<circle cx="2" cy="134" r="2" fill="#6E6E6E"/>
<circle cx="2" cy="13" r="2" fill="#6E6E6E"/>
<circle cx="2" cy="101" r="2" fill="#6E6E6E"/>
<circle cx="2" cy="57" r="2" fill="#6E6E6E"/>
<circle cx="2" cy="145" r="2" fill="#6E6E6E"/>
<circle cx="90" cy="2" r="2" fill="#6E6E6E"/>
<circle cx="90" cy="90" r="2" fill="#6E6E6E"/>
<circle cx="90" cy="46" r="2" fill="#6E6E6E"/>
<circle cx="90" cy="134" r="2" fill="#6E6E6E"/>
<circle cx="90" cy="13" r="2" fill="#6E6E6E"/>
<circle cx="90" cy="101" r="2" fill="#6E6E6E"/>
<circle cx="90" cy="57" r="2" fill="#6E6E6E"/>
<circle cx="90" cy="145" r="2" fill="#6E6E6E"/>
<circle cx="46" cy="2" r="2" fill="#6E6E6E"/>
<circle cx="46" cy="90" r="2" fill="#6E6E6E"/>
<circle cx="46" cy="46" r="2" fill="#6E6E6E"/>
<circle cx="46" cy="134" r="2" fill="#6E6E6E"/>
<circle cx="46" cy="13" r="2" fill="#6E6E6E"/>
<circle cx="46" cy="101" r="2" fill="#6E6E6E"/>
<circle cx="46" cy="57" r="2" fill="#6E6E6E"/>
<circle cx="46" cy="145" r="2" fill="#6E6E6E"/>
<circle cx="134" cy="2" r="2" fill="#6E6E6E"/>
<circle cx="134" cy="90" r="2" fill="#6E6E6E"/>
<circle cx="134" cy="46" r="2" fill="#6E6E6E"/>
<circle cx="134" cy="134" r="2" fill="#6E6E6E"/>
<circle cx="134" cy="13" r="2" fill="#6E6E6E"/>
<circle cx="134" cy="101" r="2" fill="#6E6E6E"/>
<circle cx="134" cy="57" r="2" fill="#6E6E6E"/>
<circle cx="134" cy="145" r="2" fill="#6E6E6E"/>
<circle cx="24" cy="2" r="2" fill="#6E6E6E"/>
<circle cx="24" cy="90" r="2" fill="#6E6E6E"/>
<circle cx="24" cy="46" r="2" fill="#6E6E6E"/>
<circle cx="24" cy="134" r="2" fill="#6E6E6E"/>
<circle cx="24" cy="13" r="2" fill="#6E6E6E"/>
<circle cx="24" cy="101" r="2" fill="#6E6E6E"/>
<circle cx="24" cy="57" r="2" fill="#6E6E6E"/>
<circle cx="24" cy="145" r="2" fill="#6E6E6E"/>
<circle cx="112" cy="2" r="2" fill="#6E6E6E"/>
<circle cx="112" cy="90" r="2" fill="#6E6E6E"/>
<circle cx="112" cy="46" r="2" fill="#6E6E6E"/>
<circle cx="112" cy="134" r="2" fill="#6E6E6E"/>
<circle cx="112" cy="13" r="2" fill="#6E6E6E"/>
<circle cx="112" cy="101" r="2" fill="#6E6E6E"/>
<circle cx="112" cy="57" r="2" fill="#6E6E6E"/>
<circle cx="112" cy="145" r="2" fill="#6E6E6E"/>
<circle cx="68" cy="2" r="2" fill="#6E6E6E"/>
<circle cx="68" cy="90" r="2" fill="#6E6E6E"/>
<circle cx="68" cy="46" r="2" fill="#6E6E6E"/>
<circle cx="68" cy="134" r="2" fill="#6E6E6E"/>
<circle cx="68" cy="13" r="2" fill="#6E6E6E"/>
<circle cx="68" cy="101" r="2" fill="#6E6E6E"/>
<circle cx="68" cy="57" r="2" fill="#6E6E6E"/>
<circle cx="68" cy="145" r="2" fill="#6E6E6E"/>
<circle cx="156" cy="2" r="2" fill="#6E6E6E"/>
<circle cx="156" cy="90" r="2" fill="#6E6E6E"/>
<circle cx="156" cy="46" r="2" fill="#6E6E6E"/>
<circle cx="156" cy="134" r="2" fill="#6E6E6E"/>
<circle cx="156" cy="13" r="2" fill="#6E6E6E"/>
<circle cx="156" cy="101" r="2" fill="#6E6E6E"/>
<circle cx="156" cy="57" r="2" fill="#6E6E6E"/>
<circle cx="156" cy="145" r="2" fill="#6E6E6E"/>
<circle cx="13" cy="2" r="2" fill="#6E6E6E"/>
<circle cx="13" cy="90" r="2" fill="#6E6E6E"/>
<circle cx="13" cy="46" r="2" fill="#6E6E6E"/>
<circle cx="13" cy="134" r="2" fill="#6E6E6E"/>
<circle cx="13" cy="13" r="2" fill="#6E6E6E"/>
<circle cx="13" cy="101" r="2" fill="#6E6E6E"/>
<circle cx="13" cy="57" r="2" fill="#6E6E6E"/>
<circle cx="13" cy="145" r="2" fill="#6E6E6E"/>
<circle cx="101" cy="2" r="2" fill="#6E6E6E"/>
<circle cx="101" cy="90" r="2" fill="#6E6E6E"/>
<circle cx="101" cy="46" r="2" fill="#6E6E6E"/>
<circle cx="101" cy="134" r="2" fill="#6E6E6E"/>
<circle cx="101" cy="13" r="2" fill="#6E6E6E"/>
<circle cx="101" cy="101" r="2" fill="#6E6E6E"/>
<circle cx="101" cy="57" r="2" fill="#6E6E6E"/>
<circle cx="101" cy="145" r="2" fill="#6E6E6E"/>
<circle cx="57" cy="2" r="2" fill="#6E6E6E"/>
<circle cx="57" cy="90" r="2" fill="#6E6E6E"/>
<circle cx="57" cy="46" r="2" fill="#6E6E6E"/>
<circle cx="57" cy="134" r="2" fill="#6E6E6E"/>
<circle cx="57" cy="13" r="2" fill="#6E6E6E"/>
<circle cx="57" cy="101" r="2" fill="#6E6E6E"/>
<circle cx="57" cy="57" r="2" fill="#6E6E6E"/>
<circle cx="57" cy="145" r="2" fill="#6E6E6E"/>
<circle cx="145" cy="2" r="2" fill="#6E6E6E"/>
<circle cx="145" cy="90" r="2" fill="#6E6E6E"/>
<circle cx="145" cy="46" r="2" fill="#6E6E6E"/>
<circle cx="145" cy="134" r="2" fill="#6E6E6E"/>
<circle cx="145" cy="13" r="2" fill="#6E6E6E"/>
<circle cx="145" cy="101" r="2" fill="#6E6E6E"/>
<circle cx="145" cy="57" r="2" fill="#6E6E6E"/>
<circle cx="145" cy="145" r="2" fill="#6E6E6E"/>
<circle cx="35" cy="2" r="2" fill="#6E6E6E"/>
<circle cx="35" cy="90" r="2" fill="#6E6E6E"/>
<circle cx="35" cy="46" r="2" fill="#6E6E6E"/>
<circle cx="35" cy="134" r="2" fill="#6E6E6E"/>
<circle cx="35" cy="13" r="2" fill="#6E6E6E"/>
<circle cx="35" cy="101" r="2" fill="#6E6E6E"/>
<circle cx="35" cy="57" r="2" fill="#6E6E6E"/>
<circle cx="35" cy="145" r="2" fill="#6E6E6E"/>
<circle cx="123" cy="2" r="2" fill="#6E6E6E"/>
<circle cx="123" cy="90" r="2" fill="#6E6E6E"/>
<circle cx="123" cy="46" r="2" fill="#6E6E6E"/>
<circle cx="123" cy="134" r="2" fill="#6E6E6E"/>
<circle cx="123" cy="13" r="2" fill="#6E6E6E"/>
<circle cx="123" cy="101" r="2" fill="#6E6E6E"/>
<circle cx="123" cy="57" r="2" fill="#6E6E6E"/>
<circle cx="123" cy="145" r="2" fill="#6E6E6E"/>
<circle cx="79" cy="2" r="2" fill="#6E6E6E"/>
<circle cx="79" cy="90" r="2" fill="#6E6E6E"/>
<circle cx="79" cy="46" r="2" fill="#6E6E6E"/>
<circle cx="79" cy="134" r="2" fill="#6E6E6E"/>
<circle cx="79" cy="13" r="2" fill="#6E6E6E"/>
<circle cx="79" cy="101" r="2" fill="#6E6E6E"/>
<circle cx="79" cy="57" r="2" fill="#6E6E6E"/>
<circle cx="79" cy="145" r="2" fill="#6E6E6E"/>
<circle cx="167" cy="2" r="2" fill="#6E6E6E"/>
<circle cx="167" cy="90" r="2" fill="#6E6E6E"/>
<circle cx="167" cy="46" r="2" fill="#6E6E6E"/>
<circle cx="167" cy="134" r="2" fill="#6E6E6E"/>
<circle cx="167" cy="13" r="2" fill="#6E6E6E"/>
<circle cx="167" cy="101" r="2" fill="#6E6E6E"/>
<circle cx="167" cy="57" r="2" fill="#6E6E6E"/>
<circle cx="167" cy="145" r="2" fill="#6E6E6E"/>
<circle cx="2" cy="24" r="2" fill="#6E6E6E"/>
<circle cx="2" cy="112" r="2" fill="#6E6E6E"/>
<circle cx="2" cy="68" r="2" fill="#6E6E6E"/>
<circle cx="2" cy="156" r="2" fill="#6E6E6E"/>
<circle cx="2" cy="35" r="2" fill="#6E6E6E"/>
<circle cx="2" cy="123" r="2" fill="#6E6E6E"/>
<circle cx="2" cy="79" r="2" fill="#6E6E6E"/>
<circle cx="90" cy="24" r="2" fill="#6E6E6E"/>
<circle cx="90" cy="112" r="2" fill="#6E6E6E"/>
<circle cx="90" cy="68" r="2" fill="#6E6E6E"/>
<circle cx="90" cy="156" r="2" fill="#6E6E6E"/>
<circle cx="90" cy="35" r="2" fill="#6E6E6E"/>
<circle cx="90" cy="123" r="2" fill="#6E6E6E"/>
<circle cx="90" cy="79" r="2" fill="#6E6E6E"/>
<circle cx="46" cy="24" r="2" fill="#6E6E6E"/>
<circle cx="46" cy="112" r="2" fill="#6E6E6E"/>
<circle cx="46" cy="68" r="2" fill="#6E6E6E"/>
<circle cx="46" cy="156" r="2" fill="#6E6E6E"/>
<circle cx="46" cy="35" r="2" fill="#6E6E6E"/>
<circle cx="46" cy="123" r="2" fill="#6E6E6E"/>
<circle cx="46" cy="79" r="2" fill="#6E6E6E"/>
<circle cx="134" cy="24" r="2" fill="#6E6E6E"/>
<circle cx="134" cy="112" r="2" fill="#6E6E6E"/>
<circle cx="134" cy="68" r="2" fill="#6E6E6E"/>
<circle cx="134" cy="156" r="2" fill="#6E6E6E"/>
<circle cx="134" cy="35" r="2" fill="#6E6E6E"/>
<circle cx="134" cy="123" r="2" fill="#6E6E6E"/>
<circle cx="134" cy="79" r="2" fill="#6E6E6E"/>
<circle cx="24" cy="24" r="2" fill="#6E6E6E"/>
<circle cx="24" cy="112" r="2" fill="#6E6E6E"/>
<circle cx="24" cy="68" r="2" fill="#6E6E6E"/>
<circle cx="24" cy="156" r="2" fill="#6E6E6E"/>
<circle cx="24" cy="35" r="2" fill="#6E6E6E"/>
<circle cx="24" cy="123" r="2" fill="#6E6E6E"/>
<circle cx="24" cy="79" r="2" fill="#6E6E6E"/>
<circle cx="112" cy="24" r="2" fill="#6E6E6E"/>
<circle cx="112" cy="112" r="2" fill="#6E6E6E"/>
<circle cx="112" cy="68" r="2" fill="#6E6E6E"/>
<circle cx="112" cy="156" r="2" fill="#6E6E6E"/>
<circle cx="112" cy="35" r="2" fill="#6E6E6E"/>
<circle cx="112" cy="123" r="2" fill="#6E6E6E"/>
<circle cx="112" cy="79" r="2" fill="#6E6E6E"/>
<circle cx="68" cy="24" r="2" fill="#6E6E6E"/>
<circle cx="68" cy="112" r="2" fill="#6E6E6E"/>
<circle cx="68" cy="68" r="2" fill="#6E6E6E"/>
<circle cx="68" cy="156" r="2" fill="#6E6E6E"/>
<circle cx="68" cy="35" r="2" fill="#6E6E6E"/>
<circle cx="68" cy="123" r="2" fill="#6E6E6E"/>
<circle cx="68" cy="79" r="2" fill="#6E6E6E"/>
<circle cx="156" cy="24" r="2" fill="#6E6E6E"/>
<circle cx="156" cy="112" r="2" fill="#6E6E6E"/>
<circle cx="156" cy="68" r="2" fill="#6E6E6E"/>
<circle cx="156" cy="156" r="2" fill="#6E6E6E"/>
<circle cx="156" cy="35" r="2" fill="#6E6E6E"/>
<circle cx="156" cy="123" r="2" fill="#6E6E6E"/>
<circle cx="156" cy="79" r="2" fill="#6E6E6E"/>
<circle cx="13" cy="24" r="2" fill="#6E6E6E"/>
<circle cx="13" cy="112" r="2" fill="#6E6E6E"/>
<circle cx="13" cy="68" r="2" fill="#6E6E6E"/>
<circle cx="13" cy="156" r="2" fill="#6E6E6E"/>
<circle cx="13" cy="35" r="2" fill="#6E6E6E"/>
<circle cx="13" cy="123" r="2" fill="#6E6E6E"/>
<circle cx="13" cy="79" r="2" fill="#6E6E6E"/>
<circle cx="101" cy="24" r="2" fill="#6E6E6E"/>
<circle cx="101" cy="112" r="2" fill="#6E6E6E"/>
<circle cx="101" cy="68" r="2" fill="#6E6E6E"/>
<circle cx="101" cy="156" r="2" fill="#6E6E6E"/>
<circle cx="101" cy="35" r="2" fill="#6E6E6E"/>
<circle cx="101" cy="123" r="2" fill="#6E6E6E"/>
<circle cx="101" cy="79" r="2" fill="#6E6E6E"/>
<circle cx="57" cy="24" r="2" fill="#6E6E6E"/>
<circle cx="57" cy="112" r="2" fill="#6E6E6E"/>
<circle cx="57" cy="68" r="2" fill="#6E6E6E"/>
<circle cx="57" cy="156" r="2" fill="#6E6E6E"/>
<circle cx="57" cy="35" r="2" fill="#6E6E6E"/>
<circle cx="57" cy="123" r="2" fill="#6E6E6E"/>
<circle cx="57" cy="79" r="2" fill="#6E6E6E"/>
<circle cx="145" cy="24" r="2" fill="#6E6E6E"/>
<circle cx="145" cy="112" r="2" fill="#6E6E6E"/>
<circle cx="145" cy="68" r="2" fill="#6E6E6E"/>
<circle cx="145" cy="156" r="2" fill="#6E6E6E"/>
<circle cx="145" cy="35" r="2" fill="#6E6E6E"/>
<circle cx="145" cy="123" r="2" fill="#6E6E6E"/>
<circle cx="145" cy="79" r="2" fill="#6E6E6E"/>
<circle cx="35" cy="24" r="2" fill="#6E6E6E"/>
<circle cx="35" cy="112" r="2" fill="#6E6E6E"/>
<circle cx="35" cy="68" r="2" fill="#6E6E6E"/>
<circle cx="35" cy="156" r="2" fill="#6E6E6E"/>
<circle cx="35" cy="35" r="2" fill="#6E6E6E"/>
<circle cx="35" cy="123" r="2" fill="#6E6E6E"/>
<circle cx="35" cy="79" r="2" fill="#6E6E6E"/>
<circle cx="123" cy="24" r="2" fill="#6E6E6E"/>
<circle cx="123" cy="112" r="2" fill="#6E6E6E"/>
<circle cx="123" cy="68" r="2" fill="#6E6E6E"/>
<circle cx="123" cy="156" r="2" fill="#6E6E6E"/>
<circle cx="123" cy="35" r="2" fill="#6E6E6E"/>
<circle cx="123" cy="123" r="2" fill="#6E6E6E"/>
<circle cx="123" cy="79" r="2" fill="#6E6E6E"/>
<circle cx="79" cy="24" r="2" fill="#6E6E6E"/>
<circle cx="79" cy="112" r="2" fill="#6E6E6E"/>
<circle cx="79" cy="68" r="2" fill="#6E6E6E"/>
<circle cx="79" cy="156" r="2" fill="#6E6E6E"/>
<circle cx="79" cy="35" r="2" fill="#6E6E6E"/>
<circle cx="79" cy="123" r="2" fill="#6E6E6E"/>
<circle cx="79" cy="79" r="2" fill="#6E6E6E"/>
<circle cx="167" cy="24" r="2" fill="#6E6E6E"/>
<circle cx="167" cy="112" r="2" fill="#6E6E6E"/>
<circle cx="167" cy="68" r="2" fill="#6E6E6E"/>
<circle cx="167" cy="156" r="2" fill="#6E6E6E"/>
<circle cx="167" cy="35" r="2" fill="#6E6E6E"/>
<circle cx="167" cy="123" r="2" fill="#6E6E6E"/>
<circle cx="167" cy="79" r="2" fill="#6E6E6E"/>
</svg>
