
        <svg xmlns="http://www.w3.org/2000/svg" xmlns:xlink="http://www.w3.org/1999/xlink" version="1.1" width="3192" height="3192" viewBox="0 0 3192 3192">
			
			<g transform="scale(9.6) translate(10, 10)">
				<defs id="SvgjsDefs1024"/><g id="SvgjsG1025" featureKey="rootContainer" transform="matrix(6.25,0,0,6.25,0.31249597668647766,0)" fill="#fff"><path xmlns="http://www.w3.org/2000/svg" d="M24.95 0a25 25 0 1 0 25 25 25 25 0 0 0-25-25zm0 46.91a22 22 0 1 1 22-22 22 22 0 0 1-22 21.99z"/><path xmlns="http://www.w3.org/2000/svg" d="M24.95 3.65a21.3 21.3 0 1 0 21.3 21.3 21.33 21.33 0 0 0-21.3-21.3z"/></g><g id="SvgjsG1026" featureKey="symbolFeature-0" transform="matrix(1.1505568206416144,0,0,1.1505568206416144,108.70097089318097,65.27622939427947)" fill="#000000"><path xmlns="http://www.w3.org/2000/svg" d="m 54.212735,2.616723 c -0.978086,0 -1.79598,0.7826777 -1.79598,1.7607649 0,0.4279126 0.205159,0.8559751 0.457799,1.1621048 0.02376,0.7814459 0,1.5662017 0,2.3946401 l -1.197321,0.035215 -46.2024665,0 0,4.5075582 c 0.214862,0.354722 0.709783,0.924791 1.232535,1.619903 0.522751,0.695113 1.077163,1.497969 1.443827,2.359425 0.708393,1.089835 0.704306,55.745813 0.704306,55.745813 0,0 0.05416,5.627815 2.2889935,5.704879 l 23.559033,-0.140862 c -0.06633,-1.083407 0.162728,-1.826002 0.528229,-2.359425 -0.79819,-1.206911 -1.26775,-2.637744 -1.26775,-4.19062 0,-4.215205 3.426512,-7.641719 7.641719,-7.641719 0.740035,0 1.435776,0.119984 2.112918,0.316938 l 4.472342,-46.695482 c 0.04154,-0.0741 0.06673,-0.138407 0.105649,-0.211292 l 1.126889,0 0,-2.25378 2.253779,0 c 0,0 3.82716,0.05273 3.908897,-6.268322 l 0,-2.9580848 c 0.252642,-0.3061298 0.387369,-0.6989769 0.387369,-1.1268895 0,-0.9780872 -0.782678,-1.7607649 -1.760765,-1.7607649 z m -0.03522,0.1760766 c 0.595849,0 1.091674,0.4958246 1.091674,1.0916742 0,0.5958495 -0.495825,1.0564588 -1.091674,1.0564588 -0.59585,0 -1.056459,-0.4606093 -1.056459,-1.0564588 0,-0.5958496 0.460609,-1.0916742 1.056459,-1.0916742 z" style="" stroke="none"/><path xmlns="http://www.w3.org/2000/svg" d="m 53.158136,5.9389943 c 0.434822,1.0396201 1.040927,-0.4379745 1.47571,0.6016955 L 72.049221,48.116132 c 0.434822,1.03962 0.436097,1.036455 1.475711,0.601696 L 76.641042,47.406806 58.351653,3.7539574 56.274246,4.6279721 55.432691,2.5369092 54.995683,1.4982055 c 0,0 -1.286821,0.5436748 -2.077407,0.8740146 -1.03963,0.4347939 -1.036454,0.436096 -0.601695,1.4757111 0.434822,1.0396201 0.384154,0.9969695 0.841555,2.091063 z m 0.09957,-1.7611196 c -0.23107,-0.5492201 0.03367,-1.1985243 0.582893,-1.4295945 0.54922,-0.2310703 1.166065,0.047329 1.397135,0.5965492 0.23107,0.549221 -0.01487,1.1524086 -0.56409,1.3834788 -0.549221,0.2310703 -1.184868,-0.00121 -1.415938,-0.5504335 z" style="" stroke="none"/><path xmlns="http://www.w3.org/2000/svg" style="" d="m 48.818307,71.218029 c 0,3.910698 -3.170247,7.080944 -7.080944,7.080944 -3.910697,0 -7.080943,-3.170246 -7.080943,-7.080944 0,-3.910697 3.170246,-7.080944 7.080943,-7.080944 3.910697,0 7.080944,3.170247 7.080944,7.080944 z" fill-opacity="1" stroke="none"/></g><g id="SvgjsG1027" featureKey="nameFeature-0" transform="matrix(1.066313485035474,0,0,1.066313485035474,52.91949209937789,164.99077047234516)" fill="#000000"><path d="M14.88 23.56 c2.76 1.72 4.52 5.04 4.4 8.8 c-0.28 7.32 -9.2 10.72 -15.68 7.44 c-0.72 -0.36 -0.8 -1.04 -0.56 -1.64 c-0.24 -8.68 0.6 -17.36 0.08 -26.08 c-0.28 -0.44 -0.32 -1.08 -0.04 -1.56 c0.16 -0.8 2.2 -1.08 2.92 -0.84 c5.28 -1.24 11.8 1.48 11.56 7.64 c-0.08 2.56 -1.08 4.8 -2.68 6.24 z M13.2 17 c0 -2.76 -3.04 -3.92 -5.72 -3.52 c0.2 3.36 0.2 4.84 0.12 8.24 c0.2 0.04 0.44 0.12 0.64 0.16 c0.84 -0.16 1.28 -0.2 2.08 -0.12 c2.04 -0.68 3 -2.08 2.88 -4.76 z M7.4 36.56 c8.4 2.68 9.36 -9.2 3.24 -10.12 c-0.84 0.2 -1.36 0.24 -2.32 0.12 c-0.16 0.04 -0.28 0.04 -0.44 0.12 c-0.12 0 -0.24 0.04 -0.36 0.04 c-0.08 4.08 -0.24 5.76 -0.12 9.84 z M31.387 12.120000000000001 c0.28 9.16 0.72 16.72 0.12 25.88 c-0.2 3.04 -4.56 2.92 -4.36 0 c0.64 -9.16 0 -16.72 -0.12 -25.88 c-0.04 -3.04 4.32 -2.84 4.36 0 z M56.81400000000001 11.84 c-0.36 9.2 0.8 16.84 0.44 26.04 c-0.12 3.12 -4.48 3.04 -4.36 0 c0.2 -4.6 -0.04 -6.44 -0.24 -11.08 c-0.08 -0.04 -0.2 -0.12 -0.28 -0.24 c-2.88 -3.2 -5.36 -5.2 -8.32 -8.36 c0.36 7.8 -0.6 11.88 -0.28 19.68 c0.12 2.96 -4.24 2.88 -4.36 0 c-0.4 -9.24 0.48 -15.68 0.08 -24.96 c-0.16 -3.8 3.28 -3.52 3.8 -2.16 l0 0.04 c2.8 3.64 5.96 5.8 9.2 9.08 c-0.12 -3.2 -0.36 -4.84 -0.08 -8.04 c0.24 -2.6 4.6 -2.72 4.4 0 z M97.06800000000001 9.879999999999999 c3 0.08 3.28 4.56 0 4.36 c-1.92 -0.12 -3 0 -4.88 0 c-0.28 8.88 -0.48 15.12 -0.36 23.84 c0.04 3 -4.36 2.68 -4.36 0 c0 -8.72 0.08 -14.96 0.36 -23.8 c-1.84 0.04 -2.88 0.16 -4.68 0.08 c-2.92 -0.16 -2.92 -4.52 0 -4.36 c4.64 0.24 9.28 -0.2 13.92 -0.12 z M117.73500000000001 11.8 c0 -2.64 4.28 -2.8 4.4 0 c0.4 9.28 -0.44 16.96 -0.16 26.24 c0.08 2.76 -4.24 2.92 -4.36 0 c-0.2 -5.28 0.04 -8.52 0.08 -13.8 c-2.8 0.2 -4.96 -0.52 -7.64 0.16 c-0.08 5.16 0 8.32 -0.12 13.48 c-0.08 3.12 -4.44 3 -4.36 0 c0.24 -9.12 -0.2 -16.64 0.16 -25.76 c0.12 -2.88 4.48 -2.96 4.36 0 c-0.12 3 0 4.8 0 7.84 c2.76 -0.44 4.8 0.32 7.6 -0.04 c0.04 -3.12 0.04 -5 0.04 -8.12 z M143.082 35.68 c2.96 -0.32 3 4.24 0 4.36 c-3.52 0.16 -8.8 0.12 -12.36 0.32 c-0.36 0.04 -0.6 -0.08 -0.84 -0.2 c-0.52 -0.16 -0.92 -0.56 -0.88 -1.28 c0.52 -9.04 -0.16 -18.12 0.12 -27.16 c-0.24 -0.8 0.2 -1.8 1.24 -1.72 c3.6 0.2 8.92 0.24 12.52 0.12 c2.8 -0.08 2.84 4.28 0 4.36 c-3.12 0.08 -6.24 0 -9.32 -0.08 c-0.08 4.12 -0.12 1.08 -0.04 5.2 c2.16 0.72 4.8 0.4 7.08 0.32 c2.96 -0.12 3 4.64 0 4.72 c-2.24 0.04 -4.8 0.36 -7.04 -0.16 c0 3.16 0.12 8.32 -0.04 11.48 c3.2 -0.08 6.4 0.08 9.56 -0.28 z M167.469 38.16 c0.44 1.72 -3.4 2.44 -3.84 0.72 c-1 -3.92 -2.36 -7.6 -4.24 -11.2 c-1.4 0.28 -2.52 0.36 -4.08 0.24 c0 3.76 0.04 7.2 0.08 10.84 c0 1.76 -4.4 1.76 -4.36 0 c0.12 -8.36 -0.04 -17.96 0.12 -26.96 c-0.24 -0.76 0.2 -1.76 1.24 -1.84 c3.08 -0.2 9.16 -0.48 11.72 1.6 c2.24 1.8 3.56 4.88 3.4 7.76 c-0.16 3.64 -1.84 5.92 -4.28 7.2 c1.88 3.68 3.24 7.64 4.24 11.64 z M155.309 23.36 c4.44 0.2 7.96 -0.48 7.84 -4.8 c-0.12 -3.96 -3.48 -4.4 -7.68 -4.32 c-0.08 4.08 -0.12 5 -0.16 9.12 z M188.21599999999998 35.68 c2.96 -0.32 3 4.24 0 4.36 c-3.52 0.16 -8.8 0.12 -12.36 0.32 c-0.36 0.04 -0.6 -0.08 -0.84 -0.2 c-0.52 -0.16 -0.92 -0.56 -0.88 -1.28 c0.52 -9.04 -0.16 -18.12 0.12 -27.16 c-0.24 -0.8 0.2 -1.8 1.24 -1.72 c3.6 0.2 8.92 0.24 12.52 0.12 c2.8 -0.08 2.84 4.28 0 4.36 c-3.12 0.08 -6.24 0 -9.32 -0.08 c-0.08 4.12 -0.12 1.08 -0.04 5.2 c2.16 0.72 4.8 0.4 7.08 0.32 c2.96 -0.12 3 4.64 0 4.72 c-2.24 0.04 -4.8 0.36 -7.04 -0.16 c0 3.16 0.12 8.32 -0.04 11.48 c3.2 -0.08 6.4 0.08 9.56 -0.28 z"/></g><g id="SvgjsG1028" featureKey="sloganFeature-0" transform="matrix(1.039485481175172,0,0,1.039485481175172,82.95715750164504,223.94043000214097)" fill="#000000"><path d="M8.9 7.359999999999999 c0.02 -0.66 0 -1.2 0 -1.84 c0 -0.74 -1.34 -0.66 -1.82 -0.64 c-2.14 0.14 -4.18 1.5 -5.16 3.36 c-0.28 0.54 -0.48 1.1 -0.62 1.68 c-0.34 1.36 -0.36 2.8 -0.2 4.18 c0.14 1.3 0.48 2.6 1.28 3.64 c1.38 1.82 3.92 2.46 6.1 2.12 c0.1 -0.02 0.2 -0.04 0.28 -0.1 c0.06 -0.04 0.12 -0.12 0.12 -0.2 l0.06 -1.14 c0.02 -0.36 0 -0.34 0 -0.7 c0 -0.48 -1 -0.12 -1.62 -0.12 c-0.6 0 -1.24 -0.02 -1.78 -0.3 c-0.96 -0.54 -1.5 -1.62 -1.8 -2.64 c-0.34 -1.1 -0.42 -2.28 -0.22 -3.4 c0.24 -1.46 0.94 -3.14 2.48 -3.64 c0.88 -0.3 1.82 -0.2 2.7 -0.1 c0.12 0.02 0.2 -0.06 0.2 -0.16 z M13.536999999999999 6.960000000000001 c-0.02 1.24 0.1 10.3 0.08 10.96 c0 0.62 0 1.24 0.02 1.86 c0 0.1 0.06 0.2 0.16 0.2 c1.4 0.06 2.78 -0.06 4.18 -0.04 c0.46 0.02 0.92 0 1.36 0 c0.44 -0.02 0.48 -0.2 0.46 -0.56 c-0.02 -0.56 -0.02 -1.06 -0.02 -1.6 c-0.02 -0.28 -0.18 -0.38 -0.42 -0.38 c-0.82 0.02 -1.64 -0.02 -2.46 0.02 c-0.14 0.02 -0.28 0.02 -0.42 0.02 c-0.24 -0.02 -0.3 -0.08 -0.32 -0.34 l0 -0.3 c-0.06 -1.66 0.06 -3.38 0.06 -5.04 c-0.02 -1.4 0 -2.66 -0.02 -3.9 c0 -0.54 0 -1.08 -0.02 -1.6 c-0.02 -0.32 0 -0.66 -0.08 -0.98 c-0.04 -0.12 -0.1 -0.28 -0.24 -0.28 l-1.88 0 c-0.32 0 -0.42 0.22 -0.44 0.54 l0 1.42 z M24.413999999999998 15.9 l-0.02 0 c0 0.5 -0.02 1.02 0 1.54 c0.02 0.64 0.06 1.28 0.1 1.92 c0 0.22 0.06 0.28 0.26 0.32 c0.42 0.1 0.82 0.12 1.24 0.12 c1.08 -0.04 2.16 0.04 3.24 0 c0.44 -0.02 0.64 0.02 1.08 -0.06 c0.4 -0.08 0.54 -0.3 0.54 -0.9 c-0.04 -0.38 -0.02 -0.54 -0.02 -1 c0 -0.66 -0.46 -0.88 -0.86 -0.86 c-0.28 0.02 -1.62 -0.02 -2.16 -0.02 c-0.9 0.02 -0.76 0.14 -0.76 -0.8 c0 -0.76 0.02 -1.74 0.02 -2.52 c0 -0.42 0.04 -0.56 0.44 -0.56 l2.5 0 c0.4 0.06 0.68 -0.22 0.68 -0.64 s0.04 -0.44 0.04 -0.86 l-0.06 -0.6 c-0.04 -0.34 -0.16 -0.46 -0.5 -0.46 c-0.22 0 -0.44 0.02 -0.66 0.04 c-0.86 0.06 -1.26 -0.06 -2.1 0 c-0.28 0 -0.32 -0.04 -0.34 -0.3 c-0.08 -0.78 0 -1.64 0.08 -2.42 c0.02 -0.32 0.1 -0.38 0.4 -0.4 l2.82 -0.02 c0.38 -0.04 0.5 -0.02 0.48 -0.4 c-0.04 -0.58 0.02 -1.18 -0.04 -1.76 c-0.04 -0.32 -0.14 -0.38 -0.5 -0.38 c-0.6 0.02 -0.74 0.02 -1.34 0.06 c-0.6 0.02 -3 0.02 -3.58 0.02 c-0.84 0 -0.9 -0.06 -0.92 0.96 c-0.04 0.8 -0.02 1.62 -0.02 2.44 c0 1.4 -0.08 6.42 -0.04 7.54 z M37.291 19.84 c0.06 0.02 0.24 0.02 0.42 0.02 c0.4 0 0.52 -1.44 0.56 -1.74 c0.02 -0.24 0.08 -0.26 0.28 -0.3 c1 -0.12 1.5 -0.04 2.5 -0.02 c0.22 0 0.34 0.1 0.4 0.28 l0.14 0.46 c0.12 0.34 0.22 0.76 0.34 1.1 c0.08 0.24 0.1 0.22 0.34 0.22 c0.32 0 1.48 0 1.82 -0.02 c0.46 0 0.14 -0.94 0.08 -1.1 c-0.18 -0.56 -0.22 -1.14 -0.4 -1.7 c-0.08 -0.24 -2.36 -11.06 -2.46 -11.66 c-0.14 -0.36 -0.02 -0.38 -0.34 -0.38 c-0.68 0 -1.4 0.04 -2.1 0 c-0.28 0 -0.26 0.08 -0.3 0.38 c-0.04 0.28 -0.76 3.46 -1.04 4.78 c-0.36 1.66 -0.68 3.26 -1.08 4.9 c-0.14 0.58 -1.1 4.76 -0.98 4.78 c0.06 0.04 0.16 0.02 0.24 0.02 c0.5 0 0.96 0 1.58 -0.02 z M39.911 15.3 l-0.42 0 c-0.56 0 -0.58 0 -0.44 -0.58 c0.1 -0.44 0.64 -2.82 0.76 -3.4 c0.02 -0.04 0.06 -0.08 0.08 -0.08 c0.04 0 0.08 0.04 0.1 0.06 c0.08 0.24 0.16 0.84 0.24 1.08 c0.18 0.76 0.3 1.4 0.48 2.22 c0.18 0.72 0.1 0.72 -0.26 0.72 c-0.18 0 -0.36 -0.02 -0.54 -0.02 z M57.44799999999999 5.460000000000001 c0.06 0.28 0.02 13.6 0.02 13.94 c0 0.6 -0.22 0.58 -0.62 0.58 c-0.6 0 -1.44 0.1 -1.62 -0.1 c-0.16 -0.14 -3.12 -7.28 -3.54 -8.18 c-0.04 -0.08 -0.14 -0.28 -0.22 -0.24 c-0.1 0.04 -0.06 0.18 -0.06 0.26 c-0.02 0.7 0.1 6.74 0.1 7.7 c0 0.48 -0.02 0.56 -0.42 0.56 l-1 0 c-0.26 0 -0.58 -0.02 -0.84 0.02 c-0.2 0 -0.3 -0.06 -0.32 -0.26 l0 -1.58 c0.04 -1.68 0 -11.64 0 -12.38 c0 -0.64 0.18 -0.76 0.82 -0.76 c0.44 -0.02 0.88 -0.02 1.32 -0.02 c0.14 0 0.22 0.02 0.3 0.2 c0.54 1.26 2.84 7.04 3.2 7.74 c0.06 0.14 0.28 0.7 0.4 0.76 l0.02 0 c0.08 -0.08 0.06 -0.48 0.06 -0.6 c0 -0.3 -0.16 -7.32 -0.16 -7.46 c0 -0.2 -0.06 -0.38 0.04 -0.52 c0.06 -0.08 0.32 -0.1 0.42 -0.12 c0.56 -0.04 1.22 0.02 1.78 0 c0.28 0 0.26 0.2 0.32 0.46 z M62.105 15.9 l-0.02 0 c0 0.5 -0.02 1.02 0 1.54 c0.02 0.64 0.06 1.28 0.1 1.92 c0 0.22 0.06 0.28 0.26 0.32 c0.42 0.1 0.82 0.12 1.24 0.12 c1.08 -0.04 2.16 0.04 3.24 0 c0.44 -0.02 0.64 0.02 1.08 -0.06 c0.4 -0.08 0.54 -0.3 0.54 -0.9 c-0.04 -0.38 -0.02 -0.54 -0.02 -1 c0 -0.66 -0.46 -0.88 -0.86 -0.86 c-0.28 0.02 -1.62 -0.02 -2.16 -0.02 c-0.9 0.02 -0.76 0.14 -0.76 -0.8 c0 -0.76 0.02 -1.74 0.02 -2.52 c0 -0.42 0.04 -0.56 0.44 -0.56 l2.5 0 c0.4 0.06 0.68 -0.22 0.68 -0.64 s0.04 -0.44 0.04 -0.86 l-0.06 -0.6 c-0.04 -0.34 -0.16 -0.46 -0.5 -0.46 c-0.22 0 -0.44 0.02 -0.66 0.04 c-0.86 0.06 -1.26 -0.06 -2.1 0 c-0.28 0 -0.32 -0.04 -0.34 -0.3 c-0.08 -0.78 0 -1.64 0.08 -2.42 c0.02 -0.32 0.1 -0.38 0.4 -0.4 l2.82 -0.02 c0.38 -0.04 0.5 -0.02 0.48 -0.4 c-0.04 -0.58 0.02 -1.18 -0.04 -1.76 c-0.04 -0.32 -0.14 -0.38 -0.5 -0.38 c-0.6 0.02 -0.74 0.02 -1.34 0.06 c-0.6 0.02 -3 0.02 -3.58 0.02 c-0.84 0 -0.9 -0.06 -0.92 0.96 c-0.04 0.8 -0.02 1.62 -0.02 2.44 c0 1.4 -0.08 6.42 -0.04 7.54 z M81.562 16.32 c0.12 -0.26 0.22 -0.52 0.32 -0.78 c0.22 -0.64 0.26 -1.3 0.32 -1.96 c0.12 -1.4 0.08 -2.82 -0.28 -4.18 c-0.44 -1.74 -1.56 -3.34 -3.24 -4.08 c-0.76 -0.34 -1.62 -0.38 -2.44 -0.36 c-0.86 0 -1.74 -0.04 -2.6 0.04 c-0.24 0.02 -0.36 0.14 -0.4 0.36 c-0.04 0.24 -0.08 0.48 -0.08 0.7 c0.04 1.22 0 4.84 0.04 5.44 c0.02 0.54 -0.04 1.2 -0.04 1.74 c0.02 1.34 0 2.7 0 4.04 c0 0.56 -0.02 1.1 -0.02 1.66 c0 0.6 -0.22 0.86 1.42 0.86 c1.46 0 2.98 -0.12 4.36 -0.64 c1.28 -0.46 2.08 -1.64 2.64 -2.84 z M75.74199999999999 14.24 l0 -2.4 c0 -1.52 0.04 -2.5 -0.02 -3.78 l0 -0.24 c0.02 -0.42 0.08 -0.44 0.52 -0.44 c0.58 -0.02 1 0.12 1.5 0.32 s0.78 0.64 1.04 1.06 c0.5 0.82 0.7 1.72 0.74 2.66 c0.02 0.54 0.04 1.08 0.04 1.62 c0 2.56 -1.5 4.34 -2.82 4.34 c-0.88 0 -1.02 0.06 -1.02 -0.52 c0 -0.6 0.04 -1.2 0.04 -1.8 c-0.02 -0.26 -0.02 -0.54 -0.02 -0.82 z M96.996 17.82 c0.02 0.62 0.02 1.24 0.04 1.86 c0 0.28 0.02 0.32 0.3 0.32 l1.8 0 c0.38 0 0.3 -0.64 0.28 -0.98 l0.06 -11.2 c0 -0.3 0.1 -0.4 0.5 -0.4 l1.76 0 c0.42 0 0.32 -0.72 0.32 -1.22 c0 -0.44 0.16 -1.2 -0.32 -1.2 c-0.34 0 -3.6 0 -4.94 0.02 c-0.66 0 -1.2 -0.02 -1.86 -0.02 c-0.5 0 -0.48 0.4 -0.48 1.28 c0 0.56 -0.02 1.12 0.46 1.12 c0.28 0 1.42 0 1.74 0.02 c0.2 0 0.34 0.06 0.38 0.28 c0 0.06 0.02 0.12 0.02 0.18 c0 1.44 -0.1 8.14 -0.06 9.94 z M112.67299999999999 14.08 c0 0.9 -0.02 2.68 -0.04 2.68 l0 2.72 c0 0.12 -0.02 0.32 0.04 0.44 c0.06 0.14 0.24 0.1 0.36 0.08 c0.58 -0.06 1.16 0.02 1.74 0 c0.64 -0.02 0.44 -1 0.42 -1.4 c-0.08 -0.88 0.02 -7.58 0.02 -9.98 c0 -1.08 -0.04 -3.3 -0.1 -3.4 c-0.1 -0.18 -0.36 -0.22 -0.56 -0.24 c-0.44 -0.08 -0.66 0.04 -1.32 0.04 s-0.7 0.2 -0.7 0.9 l0 0.6 c-0.02 0.48 0.06 3.84 0.06 4.38 c0 0.26 -0.02 0.28 -0.28 0.28 c-0.66 -0.02 -1.58 0.06 -2.26 0 c-0.98 -0.08 -0.76 0 -0.82 -0.9 l0 -0.12 c0 -1.28 0.16 -4.6 0.1 -4.8 c-0.1 -0.3 -0.22 -0.36 -0.48 -0.34 c-0.6 0.04 -1.22 -0.06 -1.82 -0.02 c-0.2 0.02 -0.26 0.08 -0.32 0.28 c-0.02 0.1 -0.04 0.2 -0.04 0.3 c0 0.62 0.04 1.46 0.06 2.08 l-0.06 11.86 c0 0.52 0.46 0.46 1.48 0.46 c0.94 0 1.18 0.22 1.18 -0.9 c0 -0.9 -0.06 -2.04 -0.04 -2.94 c0.02 -0.7 0 -1.38 0 -2.08 c0.02 -0.26 0.08 -0.34 0.32 -0.34 c0.88 -0.02 1.84 0 2.72 0 c0.28 0 0.34 0.04 0.34 0.36 z M121.66999999999999 19.84 c0.06 0.02 0.24 0.02 0.42 0.02 c0.4 0 0.52 -1.44 0.56 -1.74 c0.02 -0.24 0.08 -0.26 0.28 -0.3 c1 -0.12 1.5 -0.04 2.5 -0.02 c0.22 0 0.34 0.1 0.4 0.28 l0.14 0.46 c0.12 0.34 0.22 0.76 0.34 1.1 c0.08 0.24 0.1 0.22 0.34 0.22 c0.32 0 1.48 0 1.82 -0.02 c0.46 0 0.14 -0.94 0.08 -1.1 c-0.18 -0.56 -0.22 -1.14 -0.4 -1.7 c-0.08 -0.24 -2.36 -11.06 -2.46 -11.66 c-0.14 -0.36 -0.02 -0.38 -0.34 -0.38 c-0.68 0 -1.4 0.04 -2.1 0 c-0.28 0 -0.26 0.08 -0.3 0.38 c-0.04 0.28 -0.76 3.46 -1.04 4.78 c-0.36 1.66 -0.68 3.26 -1.08 4.9 c-0.14 0.58 -1.1 4.76 -0.98 4.78 c0.06 0.04 0.16 0.02 0.24 0.02 c0.5 0 0.96 0 1.58 -0.02 z M124.28999999999998 15.3 l-0.42 0 c-0.56 0 -0.58 0 -0.44 -0.58 c0.1 -0.44 0.64 -2.82 0.76 -3.4 c0.02 -0.04 0.06 -0.08 0.08 -0.08 c0.04 0 0.08 0.04 0.1 0.06 c0.08 0.24 0.16 0.84 0.24 1.08 c0.18 0.76 0.3 1.4 0.48 2.22 c0.18 0.72 0.1 0.72 -0.26 0.72 c-0.18 0 -0.36 -0.02 -0.54 -0.02 z M135.84699999999998 17.82 c0.02 0.62 0.02 1.24 0.04 1.86 c0 0.28 0.02 0.32 0.3 0.32 l1.8 0 c0.38 0 0.3 -0.64 0.28 -0.98 l0.06 -11.2 c0 -0.3 0.1 -0.4 0.5 -0.4 l1.76 0 c0.42 0 0.32 -0.72 0.32 -1.22 c0 -0.44 0.16 -1.2 -0.32 -1.2 c-0.34 0 -3.6 0 -4.94 0.02 c-0.66 0 -1.2 -0.02 -1.86 -0.02 c-0.5 0 -0.48 0.4 -0.48 1.28 c0 0.56 -0.02 1.12 0.46 1.12 c0.28 0 1.42 0 1.74 0.02 c0.2 0 0.34 0.06 0.38 0.28 c0 0.06 0.02 0.12 0.02 0.18 c0 1.44 -0.1 8.14 -0.06 9.94 z"/></g>
			</g>
		</svg>
	